<?xml version="1.0" standalone="no"?>
<!DOCTYPE svg PUBLIC "-//W3C//DTD SVG 20010904//EN"
 "http://www.w3.org/TR/2001/REC-SVG-20010904/DTD/svg10.dtd">
<svg version="1.0" xmlns="http://www.w3.org/2000/svg"
 width="500.000000pt" height="500.000000pt" viewBox="0 0 500.000000 500.000000"
 preserveAspectRatio="xMidYMid meet">
<metadata>
Created by potrace 1.14, written by Peter Selinger 2001-2017
</metadata>
<g transform="translate(0.000000,500.000000) scale(0.100000,-0.100000)"
fill="#000000" stroke="none">
<path d="M2460 4433 c-32 -3 -157 -17 -258 -29 -48 -5 -254 -57 -317 -79 -187
-66 -330 -137 -474 -236 -221 -152 -421 -383 -553 -640 -155 -301 -226 -595
-226 -934 0 -329 64 -600 208 -887 100 -199 272 -413 441 -551 146 -119 379
-245 572 -311 119 -41 340 -90 457 -101 94 -9 347 -9 442 0 177 17 470 94 618
162 88 40 193 94 222 114 14 11 29 19 32 19 11 0 149 102 231 171 84 70 224
216 239 250 5 10 12 19 16 19 11 0 133 186 178 270 65 122 149 345 168 445 2
11 6 31 9 45 7 34 15 85 25 150 5 30 8 154 6 275 -3 175 -8 241 -25 325 -88
437 -333 850 -671 1131 -57 47 -69 55 -159 115 -191 128 -416 217 -641 254
-117 19 -439 33 -540 23z"/>
</g>
</svg>
